<svg xmlns="http://www.w3.org/2000/svg" width="562" height="126" viewBox="0 0 562 126" role="img" aria-label="ci-line: narrow terminal"><rect width="100%" height="100%" rx="8" fill="#1e1e1e"/><g font-family="ui-monospace, SFMono-Regular, Menlo, Consolas, monospace" font-size="14" xml:space="preserve"><text x="16.0 24.4" y="30" fill="#7a7a7a">CI</text><text x="41.2 49.6 58.0 66.4 74.8 83.2 91.6" y="30" fill="#d4d4d4">a41c9e2</text><text x="116.8" y="30" fill="#4eba65">●</text><text x="133.6 142.0" y="30" fill="#7a7a7a">──</text><text x="158.8" y="30" fill="#4eba65">●</text><text x="175.6 184.0" y="30" fill="#7a7a7a">──</text><text x="200.8" y="30" fill="#ff6b80">✗</text><text x="217.6 226.0 234.4 242.8 251.2 259.6 268.0 276.4" y="30" fill="#d4d4d4">Validate</text><text x="293.2 301.6" y="30" fill="#7a7a7a">──</text><text x="318.4" y="30" fill="#4eba65">●</text><text x="335.2" y="30" fill="#d4d4d4">▸</text><text x="352.0 360.4 368.8 385.6 394.0 410.8 419.2 427.6 436.0 444.4 452.8" y="30" fill="#7a7a7a">/citoexpand</text><text x="200.8 209.2" y="50" fill="#7a7a7a">├─</text><text x="226.0 234.4 242.8 251.2" y="50" fill="#d4d4d4">lint</text><text x="268.0" y="50" fill="#4eba65">●</text><text x="284.8" y="50" fill="#ff6b80">✗</text><text x="301.6 310.0 318.4 326.8 335.2 343.6 352.0 360.4" y="50" fill="#d4d4d4">brakeman</text><text x="377.2" y="50" fill="#4eba65">●</text><text x="394.0" y="50" fill="#4eba65">●</text><text x="200.8 209.2" y="70" fill="#7a7a7a">└─</text><text x="226.0 234.4 242.8 251.2" y="70" fill="#d4d4d4">test</text><text x="268.0" y="70" fill="#4eba65">●</text><text x="284.8" y="70" fill="#4eba65">●</text><line x1="16" y1="82" x2="546" y2="82" stroke="#444" stroke-width="1"/><text x="16" y="102" fill="#d4d4d4">❯</text><rect x="32.8" y="89" width="8.4" height="16" fill="#d4d4d4"/></g></svg>
